<?xml version="1.0" encoding="UTF-8"?>
<svg xmlns="http://www.w3.org/2000/svg" xmlns:xlink="http://www.w3.org/1999/xlink" width="330pt" height="240pt" viewBox="0 0 330 240" version="1.1">
<g id="surface37">
<path style=" stroke:none;fill-rule:nonzero;fill:rgb(0%,0%,0%);fill-opacity:1;" d="M 72.871094 177.3125 C 72.871094 184.847656 72.023438 190.933594 70.328125 195.566406 C 68.632812 200.203125 66.222656 203.800781 63.09375 206.363281 C 59.96875 208.925781 56.21875 210.640625 51.847656 211.507812 C 47.476562 212.371094 42.613281 212.804688 37.265625 212.804688 C 30.027344 212.804688 24.488281 211.675781 20.648438 209.414062 C 16.804688 207.152344 14.882812 204.441406 14.882812 201.273438 C 14.882812 198.636719 15.953125 196.414062 18.101562 194.605469 C 20.25 192.796875 23.132812 191.894531 26.75 191.894531 C 29.464844 191.894531 31.632812 192.628906 33.25 194.097656 C 34.871094 195.566406 36.210938 197.019531 37.265625 198.449219 C 38.46875 200.03125 39.488281 201.085938 40.316406 201.613281 C 41.144531 202.140625 41.898438 202.40625 42.578125 202.40625 C 44.007812 202.40625 45.101562 201.558594 45.855469 199.863281 C 46.609375 198.167969 46.984375 194.871094 46.984375 189.972656 L 46.984375 97.050781 L 72.871094 89.929688 L 72.871094 177.3125 M 109.738281 92.414062 L 109.738281 152.214844 C 109.738281 153.875 110.058594 155.4375 110.699219 156.90625 C 111.339844 158.375 112.226562 159.640625 113.355469 160.695312 C 114.488281 161.75 115.804688 162.597656 117.3125 163.238281 C 118.820312 163.878906 120.441406 164.199219 122.175781 164.199219 C 124.132812 164.199219 126.359375 163.101562 129.070312 161.203125 C 133.363281 158.195312 135.964844 156.128906 135.964844 153.683594 C 135.964844 153.097656 135.964844 92.414062 135.964844 92.414062 L 161.738281 92.414062 L 161.738281 177.3125 L 135.964844 177.3125 L 135.964844 169.398438 C 132.574219 172.261719 128.957031 174.558594 125.113281 176.292969 C 121.269531 178.027344 117.539062 178.894531 113.921875 178.894531 C 109.703125 178.894531 105.78125 178.195312 102.164062 176.800781 C 98.546875 175.40625 95.382812 173.503906 92.671875 171.09375 C 89.957031 168.683594 87.828125 165.855469 86.28125 162.613281 C 84.738281 159.375 83.964844 155.90625 83.964844 152.214844 L 83.964844 92.414062 L 109.738281 92.414062 M 197.882812 177.3125 L 172.222656 177.3125 L 172.222656 58.277344 L 197.882812 51.15625 L 197.882812 177.3125 M 208.601562 97.050781 L 234.375 89.929688 L 234.375 177.3125 L 208.601562 177.3125 L 208.601562 97.050781 M 288.226562 133.449219 C 285.738281 134.507812 283.230469 135.730469 280.707031 137.125 C 278.183594 138.519531 275.882812 140.046875 273.8125 141.703125 C 271.738281 143.359375 270.0625 145.132812 268.78125 147.015625 C 267.5 148.898438 266.859375 150.859375 266.859375 152.894531 C 266.859375 154.476562 267.066406 156.003906 267.480469 157.472656 C 267.894531 158.941406 268.480469 160.203125 269.234375 161.257812 C 269.988281 162.3125 270.816406 163.160156 271.722656 163.800781 C 272.625 164.441406 273.605469 164.761719 274.660156 164.761719 C 276.769531 164.761719 278.898438 164.121094 281.046875 162.839844 C 283.195312 161.558594 285.585938 159.941406 288.226562 157.980469 L 288.226562 133.449219 M 314.109375 177.3125 L 288.226562 177.3125 L 288.226562 170.527344 C 286.792969 171.734375 285.398438 172.847656 284.042969 173.863281 C 282.6875 174.878906 281.160156 175.765625 279.464844 176.519531 C 277.769531 177.273438 275.867188 177.855469 273.753906 178.273438 C 271.644531 178.6875 269.15625 178.894531 266.296875 178.894531 C 262.375 178.894531 258.851562 178.328125 255.726562 177.199219 C 252.597656 176.066406 249.941406 174.523438 247.757812 172.5625 C 245.570312 170.605469 243.894531 168.285156 242.726562 165.609375 C 241.558594 162.9375 240.972656 160.015625 240.972656 156.851562 C 240.972656 153.609375 241.59375 150.671875 242.839844 148.03125 C 244.082031 145.394531 245.777344 143.023438 247.925781 140.910156 C 250.074219 138.800781 252.578125 136.917969 255.441406 135.257812 C 258.304688 133.601562 261.378906 132.074219 264.65625 130.679688 C 267.933594 129.285156 271.34375 128.007812 274.886719 126.839844 C 278.425781 125.671875 281.933594 124.558594 285.398438 123.503906 L 288.226562 122.824219 L 288.226562 114.460938 C 288.226562 109.035156 287.1875 105.191406 285.117188 102.929688 C 283.042969 100.667969 280.273438 99.539062 276.808594 99.539062 C 272.738281 99.539062 269.910156 100.519531 268.328125 102.476562 C 266.746094 104.4375 265.953125 106.808594 265.953125 109.597656 C 265.953125 111.179688 265.785156 112.726562 265.445312 114.234375 C 265.109375 115.742188 264.523438 117.058594 263.695312 118.191406 C 262.867188 119.320312 261.679688 120.226562 260.132812 120.902344 C 258.589844 121.582031 256.648438 121.921875 254.3125 121.921875 C 250.695312 121.921875 247.757812 120.882812 245.496094 118.8125 C 243.234375 116.738281 242.105469 114.121094 242.105469 110.953125 C 242.105469 108.015625 243.101562 105.285156 245.097656 102.761719 C 247.097656 100.234375 249.789062 98.066406 253.183594 96.261719 C 256.574219 94.449219 260.492188 93.019531 264.9375 91.964844 C 269.382812 90.910156 274.09375 90.382812 279.066406 90.382812 C 285.171875 90.382812 290.429688 90.929688 294.839844 92.019531 C 299.246094 93.113281 302.882812 94.675781 305.746094 96.710938 C 308.609375 98.746094 310.71875 101.195312 312.074219 104.058594 C 313.433594 106.921875 314.109375 110.128906 314.109375 113.667969 L 314.109375 177.3125 "/>
<path style=" stroke:none;fill-rule:nonzero;fill:rgb(79.6%,23.5%,20%);fill-opacity:1;" d="M 240.273438 68.089844 C 240.273438 77.757812 232.4375 85.589844 222.773438 85.589844 C 213.105469 85.589844 205.273438 77.757812 205.273438 68.089844 C 205.273438 58.425781 213.105469 50.589844 222.773438 50.589844 C 232.4375 50.589844 240.273438 58.425781 240.273438 68.089844 "/>
<path style=" stroke:none;fill-rule:nonzero;fill:rgb(83.5%,38.8%,36.1%);fill-opacity:1;" d="M 238.773438 68.089844 C 238.773438 76.925781 231.609375 84.089844 222.773438 84.089844 C 213.933594 84.089844 206.773438 76.925781 206.773438 68.089844 C 206.773438 59.253906 213.933594 52.089844 222.773438 52.089844 C 231.609375 52.089844 238.773438 59.253906 238.773438 68.089844 "/>
<path style=" stroke:none;fill-rule:nonzero;fill:rgb(25.1%,38.8%,84.7%);fill-opacity:1;" d="M 77.953125 68.089844 C 77.953125 77.757812 70.117188 85.589844 60.453125 85.589844 C 50.789062 85.589844 42.953125 77.757812 42.953125 68.089844 C 42.953125 58.425781 50.789062 50.589844 60.453125 50.589844 C 70.117188 50.589844 77.953125 58.425781 77.953125 68.089844 "/>
<path style=" stroke:none;fill-rule:nonzero;fill:rgb(40%,51%,87.8%);fill-opacity:1;" d="M 76.453125 68.089844 C 76.453125 76.925781 69.289062 84.089844 60.453125 84.089844 C 51.617188 84.089844 44.453125 76.925781 44.453125 68.089844 C 44.453125 59.253906 51.617188 52.089844 60.453125 52.089844 C 69.289062 52.089844 76.453125 59.253906 76.453125 68.089844 "/>
<path style=" stroke:none;fill-rule:nonzero;fill:rgb(58.4%,34.5%,69.8%);fill-opacity:1;" d="M 282.320312 68.089844 C 282.320312 77.757812 274.484375 85.589844 264.820312 85.589844 C 255.15625 85.589844 247.320312 77.757812 247.320312 68.089844 C 247.320312 58.425781 255.15625 50.589844 264.820312 50.589844 C 274.484375 50.589844 282.320312 58.425781 282.320312 68.089844 "/>
<path style=" stroke:none;fill-rule:nonzero;fill:rgb(66.7%,47.5%,75.7%);fill-opacity:1;" d="M 280.820312 68.089844 C 280.820312 76.925781 273.65625 84.089844 264.820312 84.089844 C 255.984375 84.089844 248.820312 76.925781 248.820312 68.089844 C 248.820312 59.253906 255.984375 52.089844 264.820312 52.089844 C 273.65625 52.089844 280.820312 59.253906 280.820312 68.089844 "/>
<path style=" stroke:none;fill-rule:nonzero;fill:rgb(22%,59.6%,14.9%);fill-opacity:1;" d="M 261.300781 31.671875 C 261.300781 41.335938 253.464844 49.171875 243.800781 49.171875 C 234.132812 49.171875 226.300781 41.335938 226.300781 31.671875 C 226.300781 22.007812 234.132812 14.171875 243.800781 14.171875 C 253.464844 14.171875 261.300781 22.007812 261.300781 31.671875 "/>
<path style=" stroke:none;fill-rule:nonzero;fill:rgb(37.6%,67.8%,31.8%);fill-opacity:1;" d="M 259.800781 31.671875 C 259.800781 40.507812 252.636719 47.671875 243.800781 47.671875 C 234.960938 47.671875 227.800781 40.507812 227.800781 31.671875 C 227.800781 22.835938 234.960938 15.671875 243.800781 15.671875 C 252.636719 15.671875 259.800781 22.835938 259.800781 31.671875 "/>
</g>
</svg>
