<?xml version="1.0" encoding="utf-8"?>
<svg xmlns="http://www.w3.org/2000/svg" xmlns:xlink="http://www.w3.org/1999/xlink" width="600" height="400" viewBox="0 0 600 400">
<defs>
  <clipPath id="clip9800">
    <rect x="0" y="0" width="600" height="400"/>
  </clipPath>
</defs>
<polygon clip-path="url(#clip9800)" points="
0,400 600,400 600,0 0,0 
  " fill="#ffffff" fill-opacity="1"/>
<defs>
  <clipPath id="clip9801">
    <rect x="120" y="0" width="421" height="400"/>
  </clipPath>
</defs>
<polygon clip-path="url(#clip9800)" points="
59.4418,360.121 580.315,360.121 580.315,11.811 59.4418,11.811 
  " fill="#ffffff" fill-opacity="1"/>
<defs>
  <clipPath id="clip9802">
    <rect x="59" y="11" width="522" height="349"/>
  </clipPath>
</defs>
<polyline clip-path="url(#clip9802)" style="stroke:#000000; stroke-width:0.5; stroke-opacity:0.1; fill:none" points="
  74.1835,360.121 74.1835,11.811 
  "/>
<polyline clip-path="url(#clip9802)" style="stroke:#000000; stroke-width:0.5; stroke-opacity:0.1; fill:none" points="
  197.031,360.121 197.031,11.811 
  "/>
<polyline clip-path="url(#clip9802)" style="stroke:#000000; stroke-width:0.5; stroke-opacity:0.1; fill:none" points="
  319.878,360.121 319.878,11.811 
  "/>
<polyline clip-path="url(#clip9802)" style="stroke:#000000; stroke-width:0.5; stroke-opacity:0.1; fill:none" points="
  442.726,360.121 442.726,11.811 
  "/>
<polyline clip-path="url(#clip9802)" style="stroke:#000000; stroke-width:0.5; stroke-opacity:0.1; fill:none" points="
  565.573,360.121 565.573,11.811 
  "/>
<polyline clip-path="url(#clip9802)" style="stroke:#000000; stroke-width:0.5; stroke-opacity:0.1; fill:none" points="
  59.4418,347.525 580.315,347.525 
  "/>
<polyline clip-path="url(#clip9802)" style="stroke:#000000; stroke-width:0.5; stroke-opacity:0.1; fill:none" points="
  59.4418,279.067 580.315,279.067 
  "/>
<polyline clip-path="url(#clip9802)" style="stroke:#000000; stroke-width:0.5; stroke-opacity:0.1; fill:none" points="
  59.4418,210.61 580.315,210.61 
  "/>
<polyline clip-path="url(#clip9802)" style="stroke:#000000; stroke-width:0.5; stroke-opacity:0.1; fill:none" points="
  59.4418,142.153 580.315,142.153 
  "/>
<polyline clip-path="url(#clip9802)" style="stroke:#000000; stroke-width:0.5; stroke-opacity:0.1; fill:none" points="
  59.4418,73.6962 580.315,73.6962 
  "/>
<polyline clip-path="url(#clip9800)" style="stroke:#000000; stroke-width:1; stroke-opacity:1; fill:none" points="
  59.4418,360.121 580.315,360.121 
  "/>
<polyline clip-path="url(#clip9800)" style="stroke:#000000; stroke-width:1; stroke-opacity:1; fill:none" points="
  59.4418,360.121 59.4418,11.811 
  "/>
<polyline clip-path="url(#clip9800)" style="stroke:#000000; stroke-width:1; stroke-opacity:1; fill:none" points="
  74.1835,360.121 74.1835,354.896 
  "/>
<polyline clip-path="url(#clip9800)" style="stroke:#000000; stroke-width:1; stroke-opacity:1; fill:none" points="
  197.031,360.121 197.031,354.896 
  "/>
<polyline clip-path="url(#clip9800)" style="stroke:#000000; stroke-width:1; stroke-opacity:1; fill:none" points="
  319.878,360.121 319.878,354.896 
  "/>
<polyline clip-path="url(#clip9800)" style="stroke:#000000; stroke-width:1; stroke-opacity:1; fill:none" points="
  442.726,360.121 442.726,354.896 
  "/>
<polyline clip-path="url(#clip9800)" style="stroke:#000000; stroke-width:1; stroke-opacity:1; fill:none" points="
  565.573,360.121 565.573,354.896 
  "/>
<polyline clip-path="url(#clip9800)" style="stroke:#000000; stroke-width:1; stroke-opacity:1; fill:none" points="
  59.4418,347.525 67.2549,347.525 
  "/>
<polyline clip-path="url(#clip9800)" style="stroke:#000000; stroke-width:1; stroke-opacity:1; fill:none" points="
  59.4418,279.067 67.2549,279.067 
  "/>
<polyline clip-path="url(#clip9800)" style="stroke:#000000; stroke-width:1; stroke-opacity:1; fill:none" points="
  59.4418,210.61 67.2549,210.61 
  "/>
<polyline clip-path="url(#clip9800)" style="stroke:#000000; stroke-width:1; stroke-opacity:1; fill:none" points="
  59.4418,142.153 67.2549,142.153 
  "/>
<polyline clip-path="url(#clip9800)" style="stroke:#000000; stroke-width:1; stroke-opacity:1; fill:none" points="
  59.4418,73.6962 67.2549,73.6962 
  "/>
<g clip-path="url(#clip9800)">
<text style="fill:#000000; fill-opacity:1; font-family:Arial,Helvetica Neue,Helvetica,sans-serif; font-size:12; text-anchor:middle;" transform="rotate(0, 74.1835, 373.921)" x="74.1835" y="373.921">0.0</text>
</g>
<g clip-path="url(#clip9800)">
<text style="fill:#000000; fill-opacity:1; font-family:Arial,Helvetica Neue,Helvetica,sans-serif; font-size:12; text-anchor:middle;" transform="rotate(0, 197.031, 373.921)" x="197.031" y="373.921">2.5</text>
</g>
<g clip-path="url(#clip9800)">
<text style="fill:#000000; fill-opacity:1; font-family:Arial,Helvetica Neue,Helvetica,sans-serif; font-size:12; text-anchor:middle;" transform="rotate(0, 319.878, 373.921)" x="319.878" y="373.921">5.0</text>
</g>
<g clip-path="url(#clip9800)">
<text style="fill:#000000; fill-opacity:1; font-family:Arial,Helvetica Neue,Helvetica,sans-serif; font-size:12; text-anchor:middle;" transform="rotate(0, 442.726, 373.921)" x="442.726" y="373.921">7.5</text>
</g>
<g clip-path="url(#clip9800)">
<text style="fill:#000000; fill-opacity:1; font-family:Arial,Helvetica Neue,Helvetica,sans-serif; font-size:12; text-anchor:middle;" transform="rotate(0, 565.573, 373.921)" x="565.573" y="373.921">10.0</text>
</g>
<g clip-path="url(#clip9800)">
<text style="fill:#000000; fill-opacity:1; font-family:Arial,Helvetica Neue,Helvetica,sans-serif; font-size:12; text-anchor:end;" transform="rotate(0, 53.4418, 352.025)" x="53.4418" y="352.025">0</text>
</g>
<g clip-path="url(#clip9800)">
<text style="fill:#000000; fill-opacity:1; font-family:Arial,Helvetica Neue,Helvetica,sans-serif; font-size:12; text-anchor:end;" transform="rotate(0, 53.4418, 283.567)" x="53.4418" y="283.567">25</text>
</g>
<g clip-path="url(#clip9800)">
<text style="fill:#000000; fill-opacity:1; font-family:Arial,Helvetica Neue,Helvetica,sans-serif; font-size:12; text-anchor:end;" transform="rotate(0, 53.4418, 215.11)" x="53.4418" y="215.11">50</text>
</g>
<g clip-path="url(#clip9800)">
<text style="fill:#000000; fill-opacity:1; font-family:Arial,Helvetica Neue,Helvetica,sans-serif; font-size:12; text-anchor:end;" transform="rotate(0, 53.4418, 146.653)" x="53.4418" y="146.653">75</text>
</g>
<g clip-path="url(#clip9800)">
<text style="fill:#000000; fill-opacity:1; font-family:Arial,Helvetica Neue,Helvetica,sans-serif; font-size:12; text-anchor:end;" transform="rotate(0, 53.4418, 78.1962)" x="53.4418" y="78.1962">100</text>
</g>
<g clip-path="url(#clip9800)">
<text style="fill:#000000; fill-opacity:1; font-family:Arial,Helvetica Neue,Helvetica,sans-serif; font-size:16; text-anchor:middle;" transform="rotate(0, 319.878, 397.6)" x="319.878" y="397.6">x</text>
</g>
<g clip-path="url(#clip9800)">
<text style="fill:#000000; fill-opacity:1; font-family:Arial,Helvetica Neue,Helvetica,sans-serif; font-size:16; text-anchor:middle;" transform="rotate(-90, 14.4, 185.966)" x="14.4" y="185.966">f</text>
</g>
<polyline clip-path="url(#clip9802)" style="stroke:#009af9; stroke-width:1; stroke-opacity:1; fill:none" points="
  74.1835,350.263 79.0974,349.688 84.0113,349.058 88.9252,348.373 93.8391,347.634 98.753,346.84 103.667,345.991 108.581,345.087 113.495,344.129 118.409,343.116 
  123.323,342.048 128.236,340.925 133.15,339.748 138.064,338.516 142.978,337.229 147.892,335.887 152.806,334.49 157.72,333.039 162.634,331.533 167.548,329.972 
  172.461,328.357 177.375,326.686 182.289,324.961 187.203,323.181 192.117,321.347 197.031,319.457 201.945,317.513 206.859,315.514 211.773,313.46 216.687,311.352 
  221.6,309.189 226.514,306.971 231.428,304.698 236.342,302.37 241.256,299.988 246.17,297.551 251.084,295.059 255.998,292.512 260.912,289.911 265.826,287.255 
  270.739,284.544 275.653,281.778 280.567,278.958 285.481,276.083 290.395,273.153 295.309,270.168 300.223,267.129 305.137,264.034 310.051,260.885 314.964,257.681 
  319.878,254.423 324.792,251.11 329.706,247.742 334.62,244.319 339.534,240.841 344.448,237.309 349.362,233.721 354.276,230.08 359.19,226.383 364.103,222.631 
  369.017,218.825 373.931,214.964 378.845,211.049 383.759,207.078 388.673,203.053 393.587,198.973 398.501,194.838 403.415,190.648 408.329,186.404 413.242,182.105 
  418.156,177.751 423.07,173.342 427.984,168.879 432.898,164.361 437.812,159.788 442.726,155.16 447.64,150.478 452.554,145.74 457.468,140.948 462.381,136.102 
  467.295,131.2 472.209,126.244 477.123,121.233 482.037,116.167 486.951,111.046 491.865,105.871 496.779,100.641 501.693,95.356 506.606,90.0164 511.52,84.622 
  516.434,79.1728 521.348,73.6688 526.262,68.1101 531.176,62.4966 536.09,56.8284 541.004,51.1054 545.918,45.3276 550.832,39.4951 555.745,33.6078 560.659,27.6657 
  565.573,21.6688 
  "/>
<polygon clip-path="url(#clip9800)" points="
489.608,62.931 562.315,62.931 562.315,32.691 489.608,32.691 
  " fill="#ffffff" fill-opacity="1"/>
<polyline clip-path="url(#clip9800)" style="stroke:#000000; stroke-width:1; stroke-opacity:1; fill:none" points="
  489.608,62.931 562.315,62.931 562.315,32.691 489.608,32.691 489.608,62.931 
  "/>
<polyline clip-path="url(#clip9800)" style="stroke:#009af9; stroke-width:1; stroke-opacity:1; fill:none" points="
  495.608,47.811 531.608,47.811 
  "/>
<g clip-path="url(#clip9800)">
<text style="fill:#000000; fill-opacity:1; font-family:Arial,Helvetica Neue,Helvetica,sans-serif; font-size:12; text-anchor:start;" transform="rotate(0, 537.608, 52.311)" x="537.608" y="52.311">y1</text>
</g>
</svg>
